<svg width="242" height="180" viewBox="0 0 242 180" fill="none" xmlns="http://www.w3.org/2000/svg">
<path d="M120.718 48.1441C108.895 35.3766 105.333 14.6295 115.812 0.0548096C115.567 3.27581 115.439 6.58294 116.479 9.70741C119.629 19.4461 126.036 27.7526 132.934 35.2616C138.116 40.8861 142.207 47.5671 144.012 54.9892C146.858 65.2091 145.062 76.4767 139.057 85.2925C139.489 81.9274 139.449 78.4762 138.351 75.2174C135.015 64.8341 127.95 56.181 120.718 48.1441Z" fill="white"/>
<path d="M92.8914 58.0462C85.4344 41.904 88.0838 21.6766 100.104 8.30333C97.0715 14.1773 98.8281 20.9549 101.192 26.7235C105.608 37.3376 113.173 46.2878 121.16 54.4985C127.234 60.7184 132.13 68.1888 134.299 76.6007C138.41 91.1561 135.211 107.712 125.173 119.306C128.469 109.105 122.975 98.9145 117.726 90.3779C110.71 78.6589 98.3954 70.7371 92.8914 58.0462Z" fill="white"/>
<path d="M147.653 52.2969C159.781 59.9596 167.837 73.1495 169.946 87.0418C172.38 101.962 167.611 118.037 156.808 128.939C147.977 138.293 134.996 143.735 121.985 143.456C109.7 143.59 97.6406 138.601 88.6627 130.487C78.1442 120.94 71.8543 107.009 71.943 92.9344C71.7073 79.7155 77.0355 66.1692 87.0243 57.1611C88.3589 61.1795 90.3307 64.9581 92.5685 68.5727C86.8091 75.3406 83.5315 84.1379 83.718 92.9633C83.5611 104.933 89.6055 116.709 99.2896 123.959C108.386 130.852 120.837 133.544 131.935 130.256C142.993 127.246 152.119 118.71 156.181 108.259C160.773 96.8088 159.144 83.3107 152.197 73.1005C151.481 71.7929 150.146 70.5723 150.539 68.9469C151.068 63.2281 149.194 57.7194 147.653 52.2969Z" fill="#7C7C7C"/>
<path d="M112.3 89.0511C117.059 96.367 121.612 104.337 122.132 113.182C122.75 118.642 118.816 124.498 113.232 125.565C106.697 126.526 100.663 119.2 103.479 113.182C105.981 109.048 110.318 106.135 112.153 101.568C114.007 97.5981 112.986 93.1564 112.3 89.0511Z" fill="#7C7C7C"/>
<path d="M30.1402 174.313C26.7944 177.547 22.4718 179.049 17.7779 179.049C5.69446 179.049 0.582978 170.898 0.535993 162.611C0.489766 154.277 6.01957 145.808 17.7779 145.808C22.1929 145.808 26.3753 147.448 29.7219 150.681L25.6319 154.551C23.4941 152.502 20.6129 151.546 17.7779 151.546C9.92385 151.546 6.53109 157.283 6.57808 162.611C6.6243 167.893 9.73819 173.402 17.7779 173.402C20.6129 173.402 23.8192 172.264 25.957 170.169L30.1402 174.313Z" fill="white"/>
<path d="M50.3557 155.872H55.7931V178.321H50.4489L50.1701 175.042C48.8689 177.683 45.2905 178.958 42.7343 179.004C35.9488 179.05 30.9298 174.951 30.9298 167.073C30.9298 159.332 36.1815 155.28 42.8738 155.326C45.9407 155.326 48.8689 156.737 50.1701 158.969L50.3557 155.872ZM36.5998 167.073C36.5998 171.354 39.6205 173.904 43.3853 173.904C52.3086 173.904 52.3086 160.289 43.3853 160.289C39.6205 160.289 36.5998 162.793 36.5998 167.073Z" fill="white"/>
<path d="M65.8311 155.872L66.2502 158.467C68.0159 155.69 70.3871 155.28 72.7099 155.28C75.0803 155.28 77.3576 156.191 78.6125 157.42L76.0556 162.247C74.8939 161.29 73.8246 160.79 71.9657 160.79C68.9912 160.79 66.2502 162.338 66.2502 166.482V178.321H60.5802V155.872H65.8311Z" fill="white"/>
<path d="M86.4196 146.491V158.923C87.767 156.6 91.5318 155.325 93.9485 155.325C100.641 155.325 105.613 159.332 105.613 167.072C105.613 174.45 100.548 178.821 93.8098 178.821C91.021 178.821 88.186 177.91 86.4203 175.224L86.0482 178.32H80.7503V146.491H86.4196V146.491ZM86.7909 167.073C86.7909 171.126 89.8578 173.676 93.4369 173.676C97.0608 173.676 99.9436 170.99 99.9436 167.073C99.9436 163.021 97.0616 160.517 93.4369 160.517C89.8585 160.517 86.7909 163.157 86.7909 167.073Z" fill="white"/>
<path d="M132.568 167.119C132.568 173.585 128.06 178.822 120.624 178.822C113.189 178.822 108.727 173.585 108.727 167.119C108.727 160.699 113.283 155.416 120.579 155.416C127.875 155.416 132.568 160.699 132.568 167.119ZM114.397 167.119C114.397 170.534 116.488 173.722 120.624 173.722C124.761 173.722 126.852 170.534 126.852 167.119C126.852 163.75 124.436 160.471 120.624 160.471C116.534 160.471 114.397 163.75 114.397 167.119Z" fill="white"/>
<path d="M153.341 178.321V166.573C153.341 163.158 151.436 160.562 147.811 160.562C144.326 160.562 141.956 163.431 141.956 166.846V178.321H136.333V155.826H141.398L141.77 158.877C144.093 156.646 146.418 155.508 149.299 155.508C154.69 155.508 159.013 159.469 159.013 166.527V178.321H153.341Z" fill="white"/>
<path d="M182.063 155.872H187.5V178.321H182.155L181.877 175.042C180.576 177.683 176.996 178.958 174.441 179.004C167.655 179.05 162.636 174.951 162.636 167.073C162.636 159.332 167.887 155.28 174.58 155.326C177.647 155.326 180.576 156.737 181.877 158.969L182.063 155.872ZM168.306 167.073C168.306 171.354 171.327 173.904 175.09 173.904C184.014 173.904 184.014 160.289 175.09 160.289C171.327 160.289 168.306 162.793 168.306 167.073Z" fill="white"/>
<path d="M199.304 149.542V155.918H205.624V160.699H199.257V170.397C199.257 172.537 200.467 173.585 202.232 173.585C203.115 173.585 204.138 173.312 204.974 172.901L206.554 177.637C204.928 178.275 203.58 178.548 201.86 178.593C196.888 178.775 193.634 175.997 193.634 170.396V160.698H189.359V155.917H193.634V150.134L199.304 149.542Z" fill="white"/>
<path d="M216.034 149.542C216.034 153.868 209.342 153.868 209.342 149.542C209.342 145.217 216.034 145.217 216.034 149.542ZM209.853 155.781V178.321H215.523V155.781H209.853Z" fill="white"/>
<path d="M226.166 146.491V164.887L233.88 155.872H240.666V156.19L231.324 166.437L241.967 177.911V178.321H235.135L226.166 168.166V178.321H220.495V146.491H226.166Z" fill="white"/>
</svg>
